<svg width="24" height="25" viewBox="0 0 24 25" fill="none" xmlns="http://www.w3.org/2000/svg">
<path d="M14 2.40039C13.66 2.40039 13.33 2.42039 13 2.46039V7.53039C13.32 7.44039 13.65 7.40039 14 7.40039C16.21 7.40039 18 9.19039 18 11.4004C18 11.7504 17.96 12.0804 17.87 12.4004H22.94C22.98 12.0704 23 11.7404 23 11.4004C23 6.43039 18.97 2.40039 14 2.40039Z" fill="#FFD17A"/>
<path d="M22 13C22 12.66 21.98 12.33 21.94 12L16.87 12C16.96 12.32 17 12.65 17 13C17 15.21 15.21 17 13 17C12.65 17 12.32 16.96 12 16.87L12 21.94C12.33 21.98 12.66 22 13 22C17.97 22 22 17.97 22 13Z" fill="#FFD17A"/>
<path d="M12 2.65039C6.624 2.65039 2.25 7.02439 2.25 12.4004C2.25 17.7764 6.624 22.1504 12 22.1504C17.376 22.1504 21.75 17.7764 21.75 12.4004C21.75 7.02439 17.376 2.65039 12 2.65039ZM20.25 12.4004C20.25 12.4844 20.24 12.5664 20.237 12.6504H16.724C16.729 12.5654 16.749 12.4864 16.749 12.4004C16.749 9.78139 14.618 7.65039 11.999 7.65039C11.913 7.65039 11.834 7.67139 11.749 7.67539V4.16239C11.833 4.15939 11.915 4.14939 11.999 4.14939C16.548 4.14939 20.249 7.85039 20.249 12.3994L20.25 12.4004ZM12 9.15039C13.792 9.15039 15.25 10.6084 15.25 12.4004C15.25 14.1924 13.792 15.6504 12 15.6504C10.208 15.6504 8.75 14.1924 8.75 12.4004C8.75 10.6084 10.208 9.15039 12 9.15039ZM12 20.6504C7.451 20.6504 3.75 16.9494 3.75 12.4004C3.75 8.45239 6.54 5.14639 10.25 4.34139V7.99439C8.496 8.69339 7.25 10.4004 7.25 12.4004C7.25 15.0194 9.381 17.1504 12 17.1504C14 17.1504 15.707 15.9044 16.406 14.1504H20.059C19.254 17.8604 15.948 20.6504 12 20.6504Z" fill="#F1A100"/>
</svg>
