<svg width="14" height="17" viewBox="0 0 14 17" fill="none" xmlns="http://www.w3.org/2000/svg">
<path d="M1.1665 5.90039H12.8332M9.49984 13.4004V10.9004M4.49984 13.4004H4.50817M6.99984 13.4004H7.00817M6.99984 10.9004H7.00817M4.49984 10.9004H4.50817M9.49984 8.40039H9.50817M6.99984 8.40039H7.00817M4.49984 8.40039H4.50817M3.83317 15.9004H10.1665C11.0999 15.9004 11.5667 15.9004 11.9232 15.7187C12.2368 15.559 12.4918 15.304 12.6515 14.9904C12.8332 14.6339 12.8332 14.1671 12.8332 13.2337V3.56706C12.8332 2.63364 12.8332 2.16692 12.6515 1.81041C12.4918 1.4968 12.2368 1.24183 11.9232 1.08205C11.5667 0.900391 11.0999 0.900391 10.1665 0.900391H3.83317C2.89975 0.900391 2.43304 0.900391 2.07652 1.08205C1.76291 1.24183 1.50795 1.4968 1.34816 1.81041C1.1665 2.16692 1.1665 2.63363 1.1665 3.56706V13.2337C1.1665 14.1671 1.1665 14.6339 1.34816 14.9904C1.50795 15.304 1.76291 15.559 2.07652 15.7187C2.43304 15.9004 2.89975 15.9004 3.83317 15.9004Z" stroke="#C65600" stroke-width="1.4" stroke-linecap="round" stroke-linejoin="round"/>
</svg>
