<svg width="39" height="45" viewBox="0 0 39 45" fill="none" xmlns="http://www.w3.org/2000/svg">
<path d="M15.5828 2.02185C17.9978 0.589839 21.0018 0.589838 23.4169 2.02185L34.9626 8.86796C37.2953 10.2511 38.7256 12.762 38.7256 15.474V29.5245C38.7256 32.2364 37.2953 34.7473 34.9626 36.1305L23.4169 42.9766C21.0018 44.4086 17.9978 44.4086 15.5828 42.9766L4.03699 36.1305C1.70431 34.7473 0.27404 32.2364 0.27404 29.5245V15.474C0.27404 12.762 1.70431 10.2511 4.03699 8.86796L15.5828 2.02185Z" fill="#F1A100"/>
<g clip-path="url(#clip0_232_3032)">
<path d="M14.2234 15.8516L21.8757 21.6751L8.57568 30.1016L14.2234 15.8516Z" stroke="#3D1C00" stroke-width="1.44" stroke-linejoin="round"/>
<path d="M13.4106 18.8203L19.4574 23.5703" stroke="#3D1C00" stroke-width="1.44" stroke-linejoin="round"/>
<path d="M10.8984 23.9355L14.0144 26.5385" stroke="#3D1C00" stroke-width="1.44" stroke-linejoin="round"/>
<path d="M25.9891 22.0273L19.9756 26.6871L30.4256 33.4273L25.9891 22.0273Z" stroke="#3D1C00" stroke-width="1.44" stroke-linejoin="round"/>
<path d="M26.6265 24.4004L21.8765 28.2004" stroke="#3D1C00" stroke-width="1.44" stroke-linejoin="round"/>
<path d="M28.6024 28.4902L26.1514 30.5755" stroke="#3D1C00" stroke-width="1.44" stroke-linejoin="round"/>
<path d="M22.3505 20.1257C23.1736 19.5164 24.1687 19.1835 25.1928 19.175C26.2168 19.1665 27.2173 19.4827 28.0505 20.0782M18.0755 17.2757C18.6781 16.4462 19.0099 15.4509 19.0255 14.4257M15.2255 15.3757C15.1947 14.9967 15.0734 14.6306 14.8717 14.3082C14.67 13.9859 14.3939 13.7166 14.0665 13.5232C13.411 13.1319 12.6638 12.9205 11.9005 12.9104C11.055 12.8772 10.124 13.0339 9.56348 13.6657" stroke="#3D1C00" stroke-width="1.44" stroke-linejoin="round"/>
<path d="M9.5249 14.9023V15.8523" stroke="#3D1C00" stroke-width="1.44" stroke-linejoin="round"/>
<path d="M22.8257 11.5762V12.5262" stroke="#3D1C00" stroke-width="1.44" stroke-linejoin="round"/>
<path d="M23.7749 12.5254V13.4754" stroke="#3D1C00" stroke-width="1.44" stroke-linejoin="round"/>
<path d="M29.0015 20.6016V21.5516" stroke="#3D1C00" stroke-width="1.44" stroke-linejoin="round"/>
<path d="M19.0247 13.4762C19.5494 13.4762 19.9747 13.0508 19.9747 12.5262C19.9747 12.0015 19.5494 11.5762 19.0247 11.5762C18.5 11.5762 18.0747 12.0015 18.0747 12.5262C18.0747 13.0508 18.5 13.4762 19.0247 13.4762Z" stroke="#3D1C00" stroke-width="1.44" stroke-linejoin="round"/>
<path d="M28.9998 16.8023C29.5245 16.8023 29.9498 16.377 29.9498 15.8523C29.9498 15.3277 29.5245 14.9023 28.9998 14.9023C28.4751 14.9023 28.0498 15.3277 28.0498 15.8523C28.0498 16.377 28.4751 16.8023 28.9998 16.8023Z" stroke="#3D1C00" stroke-width="1.44" stroke-linejoin="round"/>
<path d="M26.6256 15.8516C24.1325 15.9454 21.7629 16.9609 19.9756 18.7016" stroke="#3D1C00" stroke-width="1.44" stroke-linejoin="round"/>
</g>
<defs>
<clipPath id="clip0_232_3032">
<rect width="24" height="25.2" fill="white" transform="translate(8.09961 9.90039)"/>
</clipPath>
</defs>
</svg>
