<svg width="27" height="28" viewBox="0 0 27 28" fill="none" xmlns="http://www.w3.org/2000/svg">
<path d="M11.1288 2.84273C12.7034 1.23025 15.2966 1.23025 16.8712 2.84273C17.6379 3.62793 18.6927 4.06487 19.7901 4.0518C22.0437 4.02495 23.8774 5.85869 23.8505 8.11223C23.8375 9.20961 24.2744 10.2645 25.0596 11.0312C26.6721 12.6057 26.6721 15.199 25.0596 16.7735C24.2744 17.5402 23.8375 18.5951 23.8505 19.6925C23.8774 21.946 22.0437 23.7797 19.7901 23.7529C18.6927 23.7398 17.6379 24.1768 16.8712 24.962C15.2966 26.5744 12.7034 26.5744 11.1288 24.962C10.3621 24.1768 9.30727 23.7398 8.20989 23.7529C5.95635 23.7797 4.12261 21.946 4.14945 19.6925C4.16253 18.5951 3.72559 17.5402 2.94038 16.7735C1.32791 15.199 1.32791 12.6057 2.94038 11.0312C3.72559 10.2645 4.16253 9.20961 4.14945 8.11223C4.12261 5.85869 5.95635 4.02495 8.20989 4.0518C9.30727 4.06487 10.3621 3.62793 11.1288 2.84273Z" fill="#B67600"/>
<path d="M17.2 11.9023L12.25 16.7023L10 14.5205" stroke="#FFE3B0" stroke-width="1.6" stroke-linecap="round" stroke-linejoin="round"/>
</svg>
