<svg width="44" height="48" viewBox="0 0 44 48" fill="none" xmlns="http://www.w3.org/2000/svg">
<path d="M17.6905 1.31984C20.347 -0.255373 23.6514 -0.255372 26.308 1.31984L39.0083 8.85056C41.5743 10.3721 43.1476 13.134 43.1476 16.1172V31.5727C43.1476 34.5559 41.5743 37.3178 39.0083 38.8393L26.308 46.3701C23.6514 47.9453 20.347 47.9453 17.6905 46.37L4.99013 38.8393C2.42418 37.3178 0.850883 34.5559 0.850883 31.5727V16.1172C0.850883 13.134 2.42418 10.3721 4.99013 8.85056L17.6905 1.31984Z" fill="#3D2000"/>
<path fill-rule="evenodd" clip-rule="evenodd" d="M32.8332 24.5784V34.9522C32.8332 35.7188 32.504 36.4555 31.9176 36.9974C31.3321 37.5403 30.5373 37.845 29.7082 37.845C26.1008 37.845 18.732 37.845 15.1247 37.845C14.2955 37.845 13.5007 37.5403 12.9153 36.9974C12.3288 36.4555 11.9996 35.7197 11.9996 34.9522C11.9996 30.2821 11.9996 18.4079 11.9996 13.7379C11.9996 12.9703 12.3288 12.2346 12.9153 11.6926C13.5007 11.1497 14.2955 10.845 15.1247 10.845C18.732 10.845 26.1008 10.845 29.7082 10.845C30.5373 10.845 31.3321 11.1497 31.9176 11.6926C32.504 12.2346 32.8332 12.9703 32.8332 13.7379V16.7146C33.5457 16.5131 34.353 16.6732 34.9165 17.1958C35.3665 17.6124 35.9395 18.1427 36.3895 18.5593C37.203 19.3124 37.203 20.5332 36.3895 21.2863L32.8332 24.5784ZM26.2092 22.5292L30.7498 18.325V13.7379C30.7498 13.4823 30.6405 13.2365 30.4446 13.0561C30.2498 12.8748 29.9842 12.7736 29.7082 12.7736C26.1008 12.7736 18.732 12.7736 15.1247 12.7736C14.8486 12.7736 14.583 12.8748 14.3882 13.0561C14.1924 13.2365 14.083 13.4823 14.083 13.7379C14.083 18.4079 14.083 30.2821 14.083 34.9522C14.083 35.2077 14.1924 35.4526 14.3882 35.6339C14.583 35.8142 14.8486 35.9165 15.1247 35.9165C18.732 35.9165 26.1008 35.9165 29.7082 35.9165C29.9842 35.9165 30.2498 35.8142 30.4446 35.6339C30.6405 35.4526 30.7498 35.2077 30.7498 34.9522V26.5069L24.0196 32.7381C22.6935 33.9647 21.0018 34.796 19.1612 35.1228C18.5289 35.2347 18.0257 35.3244 18.0257 35.3244C17.6862 35.3842 17.3372 35.2848 17.0924 35.0592C16.8486 34.8326 16.7413 34.5096 16.8059 34.1952C16.8059 34.1952 16.9028 33.7295 17.0236 33.1441C17.3768 31.4402 18.2747 29.8742 19.5997 28.6467L24.2466 24.345H17.208C16.633 24.345 16.1663 23.913 16.1663 23.3807C16.1663 22.8485 16.633 22.4165 17.208 22.4165H25.7206C25.8967 22.4165 26.0633 22.4569 26.2092 22.5292ZM20.7841 30.2937C19.9997 31.1095 19.4403 32.0892 19.1549 33.1489C20.3008 32.8857 21.3591 32.3679 22.2404 31.6418L20.7841 30.2937ZM22.2487 28.9225L23.7216 30.286L34.9165 19.9228L33.4436 18.5593L22.2487 28.9225ZM17.208 20.4879H27.6248C28.1998 20.4879 28.6665 20.0559 28.6665 19.5236C28.6665 18.9913 28.1998 18.5593 27.6248 18.5593H17.208C16.633 18.5593 16.1663 18.9913 16.1663 19.5236C16.1663 20.0559 16.633 20.4879 17.208 20.4879ZM19.2914 16.6307H25.5414C26.1164 16.6307 26.5831 16.1987 26.5831 15.6665C26.5831 15.1342 26.1164 14.7022 25.5414 14.7022H19.2914C18.7164 14.7022 18.2497 15.1342 18.2497 15.6665C18.2497 16.1987 18.7164 16.6307 19.2914 16.6307Z" fill="white"/>
</svg>
