<svg width="24" height="24" viewBox="0 0 24 24" fill="none" xmlns="http://www.w3.org/2000/svg">
<path d="M22 23C22 21.2943 22 20.4415 21.7847 19.7475C21.2999 18.185 20.0494 16.9623 18.4514 16.4883C17.7417 16.2778 16.8695 16.2778 15.125 16.2778H8.87501C7.13055 16.2778 6.25832 16.2778 5.54857 16.4883C3.95057 16.9623 2.70005 18.185 2.2153 19.7475C2 20.4415 2 21.2943 2 23M17.625 6.5C17.625 9.53757 15.1066 12 12 12C8.8934 12 6.375 9.53757 6.375 6.5C6.375 3.46243 8.8934 1 12 1C15.1066 1 17.625 3.46243 17.625 6.5Z" stroke="#B67600" stroke-width="1.6" stroke-linecap="round" stroke-linejoin="round"/>
<path d="M5.40002 23C5.40002 23.5523 5.7582 24 6.20002 24C6.64185 24 7.00002 23.5523 7.00002 23H5.40002ZM5.40002 16V23H7.00002V16H5.40002Z" fill="#B67600"/>
<path d="M17.1 23C17.1 23.5523 17.4581 24 17.9 24C18.3418 24 18.7 23.5523 18.7 23H17.1ZM17.1 16V23H18.7V16H17.1Z" fill="#B67600"/>
<path d="M6 21H18" stroke="#B67600" stroke-width="1.6"/>
</svg>
