<svg width="20" height="16" viewBox="0 0 20 16" fill="none" xmlns="http://www.w3.org/2000/svg">
<path d="M4.1665 6.33428V11.3436C4.1665 11.6427 4.1665 11.7923 4.21205 11.9243C4.25233 12.0411 4.31806 12.1474 4.40449 12.2357C4.50222 12.3355 4.63601 12.4024 4.90355 12.5361L9.40355 14.7861C9.62218 14.8955 9.73151 14.9501 9.84617 14.9716C9.94773 14.9907 10.0519 14.9907 10.1535 14.9716C10.2682 14.9501 10.3775 14.8955 10.5961 14.7861L15.0961 12.5361C15.3637 12.4024 15.4974 12.3355 15.5952 12.2357C15.6816 12.1474 15.7473 12.0411 15.7876 11.9243C15.8332 11.7923 15.8332 11.6427 15.8332 11.3436V6.33428M1.6665 5.08428L9.70169 1.06669C9.81101 1.01203 9.86567 0.984698 9.923 0.973942C9.97378 0.964415 10.0259 0.964415 10.0767 0.973942C10.134 0.984698 10.1887 1.01203 10.298 1.06669L18.3332 5.08428L10.298 9.10188C10.1887 9.15654 10.134 9.18387 10.0767 9.19462C10.0259 9.20415 9.97378 9.20415 9.923 9.19462C9.86567 9.18387 9.81101 9.15654 9.70169 9.10188L1.6665 5.08428Z" stroke="#B67600" stroke-width="1.4" stroke-linecap="round" stroke-linejoin="round"/>
</svg>
