<svg width="44" height="48" viewBox="0 0 44 48" fill="none" xmlns="http://www.w3.org/2000/svg">
<path d="M17.6903 1.37521C20.3469 -0.200006 23.6513 -0.200005 26.3079 1.37521L39.0082 8.90593C41.5741 10.4274 43.1474 13.1894 43.1474 16.1725V31.6281C43.1474 34.6112 41.5741 37.3732 39.0082 38.8947L26.3079 46.4254C23.6513 48.0006 20.3469 48.0006 17.6903 46.4254L4.99 38.8947C2.42405 37.3732 0.850761 34.6112 0.850761 31.6281V16.1725C0.850761 13.1894 2.42406 10.4274 4.99001 8.90593L17.6903 1.37521Z" fill="#F1A100"/>
<g clip-path="url(#clip0_435_10671)">
<path d="M18.5371 36.3164L18.5371 36.3164L18.5528 36.3239C19.1615 36.6132 19.7635 36.8992 20.3488 36.8992H30.7988C32.0674 36.8992 33.0988 35.8677 33.0988 34.5992C33.0988 34.0776 32.9236 33.5955 32.6295 33.2091C32.8734 33.0454 33.0839 32.8363 33.2494 32.5928C33.4363 32.3179 33.5614 32.0057 33.616 31.6778C33.6707 31.3499 33.6536 31.014 33.566 30.6934C33.4884 30.4094 33.357 30.1432 33.1794 29.9093C33.4765 29.71 33.7235 29.4438 33.9001 29.1315C34.0955 28.7861 34.1981 28.396 34.1981 27.9992C34.1981 27.6024 34.0955 27.2124 33.9001 26.867C33.7235 26.5547 33.4766 26.2886 33.1796 26.0893C33.4737 25.7029 33.6488 25.2208 33.6488 24.6992C33.6488 23.4307 32.6174 22.3992 31.3488 22.3992H21.6962C21.8642 21.5022 22.0955 19.9449 22.0955 18.1707C22.0955 15.9147 21.4143 14.7594 20.5601 14.1756C19.7167 13.5992 18.729 13.5992 18.155 13.5992L18.1488 13.5992C17.9764 13.5992 17.8111 13.6677 17.6892 13.7896C17.5673 13.9115 17.4988 14.0768 17.4988 14.2492V18.4958L15.283 22.9231L15.283 22.9231C15.2059 23.0774 15.1933 23.256 15.2479 23.4196C15.3025 23.5831 15.4199 23.7183 15.5741 23.7954C15.7284 23.8724 15.907 23.885 16.0706 23.8304C16.2341 23.7758 16.3693 23.6585 16.4464 23.5042C16.4464 23.5042 16.4464 23.5042 16.4464 23.5042L18.7289 18.9403L18.7289 18.9403C18.7741 18.85 18.7976 18.7504 18.7977 18.6493V18.6492V14.9191C19.2784 14.9616 19.7516 15.0953 20.1162 15.5095C20.5102 15.957 20.7944 16.7514 20.7944 18.1718C20.7944 20.638 20.3057 22.7146 20.2655 22.8854C20.2648 22.888 20.2643 22.8902 20.2639 22.8919L20.2639 22.8919C20.24 22.9877 20.2383 23.0877 20.2588 23.1843C20.2793 23.2809 20.3215 23.3715 20.3823 23.4493C20.4431 23.5271 20.5208 23.5901 20.6095 23.6334C20.6982 23.6767 20.7957 23.6992 20.8944 23.6992H20.8944H31.3465C31.6032 23.7113 31.8455 23.8216 32.0232 24.0073C32.2013 24.1936 32.3007 24.4415 32.3007 24.6992C32.3007 24.957 32.2013 25.2048 32.0232 25.3911C31.8455 25.5769 31.6032 25.6872 31.3465 25.6992C31.1749 25.6999 31.0105 25.7683 30.8892 25.8896C30.7673 26.0115 30.6988 26.1768 30.6988 26.3492C30.6988 26.5216 30.7673 26.6869 30.8892 26.8088C31.0111 26.9307 31.1764 26.9992 31.3488 26.9992H31.8965C32.1532 27.0113 32.3955 27.1216 32.5732 27.3073C32.7513 27.4936 32.8507 27.7415 32.8507 27.9992C32.8507 28.257 32.7513 28.5048 32.5732 28.6911C32.3955 28.8769 32.1532 28.9872 31.8965 28.9992H31.3488C31.1764 28.9992 31.0111 29.0677 30.8892 29.1896C30.7673 29.3115 30.6988 29.4768 30.6988 29.6492C30.6988 29.8216 30.7673 29.9869 30.8892 30.1088C31.0106 30.2302 31.1749 30.2986 31.3465 30.2992C31.6032 30.3112 31.8455 30.4215 32.0232 30.6073C32.2013 30.7936 32.3007 31.0415 32.3007 31.2992C32.3007 31.557 32.2013 31.8048 32.0232 31.9911C31.8455 32.1769 31.6033 32.2872 31.3466 32.2992H30.7988C30.6264 32.2992 30.4611 32.3677 30.3392 32.4896C30.2173 32.6115 30.1488 32.7768 30.1488 32.9492C30.1488 33.1216 30.2173 33.2869 30.3392 33.4088C30.4606 33.5302 30.6249 33.5986 30.7965 33.5992C31.0532 33.6112 31.2955 33.7215 31.4732 33.9073C31.6513 34.0936 31.7507 34.3415 31.7507 34.5992C31.7507 34.857 31.6513 35.1048 31.4732 35.2911C31.2955 35.4769 31.0533 35.5872 30.7966 35.5992H20.3488C20.2112 35.5992 20.0227 35.5462 19.7996 35.4587C19.5829 35.3737 19.3455 35.2612 19.1073 35.1484L19.0948 35.1425L19.0947 35.1424L19.0796 35.1352C18.4338 34.8286 17.7402 34.4992 17.0488 34.4992H14.8488C14.6764 34.4992 14.5111 34.5677 14.3892 34.6896C14.2673 34.8115 14.1988 34.9768 14.1988 35.1492C14.1988 35.3216 14.2673 35.4869 14.3892 35.6088C14.5111 35.7307 14.6764 35.7992 14.8488 35.7992H17.0488C17.2415 35.7992 17.4742 35.8608 17.7328 35.9588C17.9901 36.0564 18.2635 36.1862 18.5371 36.3164Z" fill="#3D1C00" stroke="#3D1C00" stroke-width="0.2"/>
<path d="M26.3982 30.3008H31.8982C33.1668 30.3008 34.1982 29.2693 34.1982 28.0008C34.1982 26.7323 33.1668 25.7008 31.8982 25.7008H26.3982C25.1297 25.7008 24.0982 26.7323 24.0982 28.0008C24.0982 29.2693 25.1297 30.3008 26.3982 30.3008ZM25.7239 27.3089C25.9016 27.1231 26.1438 27.0128 26.4005 27.0008H31.896C32.1527 27.0128 32.3949 27.1231 32.5726 27.3089C32.7507 27.4952 32.8501 27.743 32.8501 28.0008C32.8501 28.2585 32.7507 28.5064 32.5726 28.6927C32.3949 28.8784 32.1527 28.9887 31.896 29.0008H26.4005C26.1438 28.9887 25.9016 28.8784 25.7239 28.6927C25.5458 28.5064 25.4463 28.2585 25.4463 28.0008C25.4463 27.743 25.5458 27.4952 25.7239 27.3089ZM27.4982 36.9008H30.7982C32.0668 36.9008 33.0982 35.8693 33.0982 34.6008C33.0982 33.3323 32.0668 32.3008 30.7982 32.3008H27.4982C26.2297 32.3008 25.1982 33.3323 25.1982 34.6008C25.1982 35.8693 26.2297 36.9008 27.4982 36.9008ZM26.8239 33.9089C27.0016 33.7231 27.2438 33.6128 27.5005 33.6008H30.7959C31.0526 33.6128 31.2949 33.7231 31.4726 33.9089C31.6507 34.0952 31.7501 34.343 31.7501 34.6008C31.7501 34.8585 31.6507 35.1064 31.4726 35.2927C31.2949 35.4784 31.0527 35.5887 30.796 35.6008H27.5005C27.2438 35.5887 27.0016 35.4784 26.8239 35.2927C26.6458 35.1064 26.5463 34.8585 26.5463 34.6008C26.5463 34.343 26.6458 34.0952 26.8239 33.9089Z" fill="#3D1C00" stroke="#3D1C00" stroke-width="0.2"/>
<path d="M22.9047 27.5591L22.9047 27.5591C22.5404 29.571 21.2776 31.0288 19.5167 31.4412C19.4677 31.4535 19.4173 31.4596 19.3668 31.4594M22.9047 27.5591L20.2282 22.9827M22.9047 27.5591C23.2767 25.5034 22.6217 23.494 21.2416 22.5727C21.1709 22.5228 21.091 22.4876 21.0066 22.469C20.9217 22.4503 20.8338 22.4488 20.7483 22.4646C20.6628 22.4805 20.5814 22.5133 20.5088 22.5612C20.4362 22.6091 20.374 22.6711 20.3258 22.7435C20.2776 22.8159 20.2444 22.8972 20.2282 22.9827M22.9047 27.5591L20.2282 22.9827M19.3668 31.4594C19.2065 31.4606 19.0514 31.4025 18.9313 31.2963C18.8111 31.1899 18.7345 31.0428 18.7162 30.8833C18.698 30.7238 18.7394 30.5632 18.8325 30.4324C18.9255 30.3018 19.0636 30.2101 19.22 30.1751C20.4485 29.8879 21.3527 28.8321 21.6255 27.3277C21.7636 26.5651 21.714 25.7955 21.5148 25.1409C21.3155 24.4857 20.9692 23.954 20.5212 23.6543C20.448 23.6083 20.3847 23.5482 20.335 23.4775C20.285 23.4064 20.2498 23.3259 20.2314 23.2409C20.2131 23.1559 20.212 23.0681 20.2282 22.9827M19.3668 31.4594C19.3665 31.4594 19.3663 31.4594 19.3661 31.4594L19.3666 31.3594L19.3675 31.4594C19.3672 31.4594 19.367 31.4594 19.3668 31.4594ZM26.9478 33.6H31.3478C32.6164 33.6 33.6478 32.5685 33.6478 31.3C33.6478 30.0315 32.6164 29 31.3478 29H26.9478C25.6793 29 24.6478 30.0315 24.6478 31.3C24.6478 32.5685 25.6793 33.6 26.9478 33.6ZM26.2735 30.6081C26.4511 30.4223 26.6934 30.312 26.9501 30.3H31.3455C31.6022 30.312 31.8445 30.4223 32.0222 30.6081C32.2003 30.7944 32.2997 31.0422 32.2997 31.3C32.2997 31.5578 32.2003 31.8056 32.0222 31.9919C31.8445 32.1777 31.6022 32.288 31.3455 32.3H26.9501C26.6934 32.288 26.4511 32.1777 26.2735 31.9919C26.0954 31.8056 25.9959 31.5578 25.9959 31.3C25.9959 31.0422 26.0954 30.7944 26.2735 30.6081ZM26.9478 27H31.3478C32.6164 27 33.6478 25.9685 33.6478 24.7C33.6478 23.4315 32.6164 22.4 31.3478 22.4H26.9478C25.6793 22.4 24.6478 23.4315 24.6478 24.7C24.6478 25.9685 25.6793 27 26.9478 27ZM26.2735 24.0081C26.4511 23.8223 26.6934 23.712 26.9501 23.7H31.3455C31.6022 23.712 31.8445 23.8223 32.0222 24.0081C32.2003 24.1944 32.2997 24.4422 32.2997 24.7C32.2997 24.9578 32.2003 25.2056 32.0222 25.3919C31.8445 25.5777 31.6022 25.688 31.3455 25.7H26.9501C26.6934 25.688 26.4511 25.5777 26.2735 25.3919C26.0954 25.2056 25.9959 24.9578 25.9959 24.7C25.9959 24.4422 26.0954 24.1944 26.2735 24.0081Z" fill="#3D1C00" stroke="#3D1C00" stroke-width="0.2"/>
<path d="M22.9276 9.73213L22.9276 9.73208C22.9778 9.6631 23.0411 9.60468 23.1139 9.56017C23.1867 9.51565 23.2675 9.4859 23.3518 9.47262C23.436 9.45934 23.5221 9.46279 23.605 9.48277C23.688 9.50275 23.7662 9.53887 23.8351 9.58906C23.9041 9.63926 23.9625 9.70255 24.0071 9.77532C24.0516 9.84809 24.0813 9.92892 24.0946 10.0132C24.1079 10.0975 24.1044 10.1835 24.0845 10.2665C24.0645 10.3494 24.0284 10.4276 23.9782 10.4966L22.6847 12.2762C22.6847 12.2762 22.6846 12.2762 22.6846 12.2763L22.6846 12.2763L22.6037 12.2175C22.5527 12.2879 22.4858 12.3452 22.4083 12.3846C22.3308 12.424 22.2451 12.4444 22.1582 12.4441L22.9276 9.73213ZM22.9276 9.73213L21.6342 11.5116L22.9276 9.73213ZM23.3379 14.5703C23.3642 14.6516 23.4062 14.727 23.4616 14.792C23.517 14.857 23.5846 14.9105 23.6607 14.9494C23.7367 14.9883 23.8197 15.0118 23.9049 15.0186C23.99 15.0254 24.0757 15.0153 24.1569 14.9889L24.157 14.9889L26.2492 14.3091C26.4131 14.2559 26.5492 14.1396 26.6275 13.986C26.7057 13.8325 26.7198 13.6541 26.6665 13.4901C26.6132 13.3262 26.497 13.1901 26.3434 13.1118C26.1898 13.0336 26.0114 13.0195 25.8475 13.0728L23.7554 13.7526C23.6743 13.7788 23.5991 13.8208 23.5342 13.8761C23.4693 13.9315 23.4159 13.999 23.3771 14.075C23.3384 14.151 23.315 14.2338 23.3082 14.3189C23.3015 14.4038 23.3116 14.4893 23.3379 14.5703ZM23.3379 14.5703L23.4331 14.5396L23.338 14.5705C23.338 14.5705 23.338 14.5704 23.3379 14.5703ZM12.4506 18.7591C12.518 18.7589 12.5849 18.7484 12.6492 18.7281L12.6499 18.7278L14.7421 18.048L14.7424 18.0479C14.9062 17.9941 15.0419 17.8777 15.1201 17.7241C15.1982 17.5705 15.2124 17.3922 15.1595 17.2282M12.4506 18.7591C12.2945 18.7617 12.1427 18.7078 12.023 18.6075C11.9032 18.507 11.8237 18.3666 11.7991 18.2121C11.7746 18.0576 11.8067 17.8995 11.8895 17.7668C11.9722 17.6343 12.0998 17.5361 12.249 17.4902C12.2493 17.4901 12.2495 17.49 12.2498 17.4899L14.34 16.8107C14.3401 16.8107 14.3401 16.8107 14.3402 16.8107C14.4213 16.784 14.507 16.7736 14.5922 16.7801C14.6774 16.7867 14.7606 16.81 14.8367 16.8488C14.9129 16.8877 14.9807 16.9412 15.0361 17.0063C15.0914 17.0714 15.1334 17.1468 15.1595 17.2282M12.4506 18.7591C12.4504 18.7591 12.4501 18.7591 12.4499 18.7591L12.4496 18.6591L12.4513 18.7591C12.4511 18.7591 12.4509 18.7591 12.4506 18.7591ZM15.1595 17.2282C15.1595 17.2282 15.1595 17.2283 15.1595 17.2283L15.0643 17.2588M15.1595 17.2282C15.1595 17.2282 15.1595 17.2281 15.1595 17.2281L15.0643 17.2588M15.0643 17.2588C15.1091 17.3977 15.0971 17.5487 15.0309 17.6787C14.9648 17.8088 14.8498 17.9074 14.7112 17.9529L14.3713 16.9057C14.44 16.8831 14.5124 16.8743 14.5845 16.8798C14.6566 16.8854 14.7269 16.9051 14.7913 16.9379C14.8558 16.9708 14.9131 17.016 14.9599 17.0711C15.0067 17.1262 15.0422 17.19 15.0643 17.2588ZM16.7216 12.4193C16.8607 12.3178 16.9539 12.1653 16.9807 11.9952C17.0076 11.8251 16.9657 11.6513 16.8645 11.5119L16.8645 11.5119L15.5719 9.73355C15.5233 9.66169 15.4608 9.60029 15.3881 9.55296C15.3149 9.50528 15.2327 9.47287 15.1467 9.45765C15.0606 9.44244 14.9724 9.44474 14.8872 9.46441C14.802 9.48409 14.7217 9.52073 14.6511 9.57216C14.5804 9.62359 14.5208 9.68874 14.4759 9.76372C14.431 9.8387 14.4017 9.92196 14.3897 10.0085C14.3777 10.0951 14.3833 10.1832 14.4061 10.2676C14.4288 10.3513 14.468 10.4296 14.5214 10.498L15.8138 12.2761L15.8948 12.2175L15.8139 12.2763L15.8139 12.2763C15.8639 12.3454 15.9271 12.404 15.9998 12.4487C16.0726 12.4934 16.1536 12.5233 16.238 12.5366C16.3223 12.5499 16.4085 12.5463 16.4916 12.5262C16.5745 12.5061 16.6527 12.4697 16.7216 12.4193ZM16.7216 12.4193C16.7216 12.4193 16.7215 12.4193 16.7215 12.4193L16.6626 12.3385L16.7217 12.4192C16.7217 12.4192 16.7216 12.4192 16.7216 12.4193ZM26.2502 17.4907L26.2492 17.4904L24.158 16.811C24.1579 16.8109 24.1577 16.8108 24.1576 16.8108C24.0762 16.7835 23.9903 16.7725 23.9048 16.7785C23.819 16.7846 23.7353 16.8076 23.6585 16.8462C23.5817 16.8848 23.5134 16.9382 23.4574 17.0034C23.4014 17.0686 23.3588 17.1443 23.3323 17.2261C23.3057 17.3078 23.2956 17.394 23.3026 17.4797C23.3096 17.5653 23.3335 17.6488 23.3729 17.7252C23.4124 17.8015 23.4666 17.8693 23.5324 17.9246C23.598 17.9798 23.674 18.0214 23.7558 18.0471C23.756 18.0471 23.7562 18.0472 23.7563 18.0473L25.8475 18.7267L25.8485 18.7271C26.0119 18.7782 26.1888 18.7628 26.3409 18.6843C26.493 18.6057 26.608 18.4704 26.6609 18.3076C26.7137 18.1448 26.7003 17.9677 26.6234 17.8148C26.5465 17.6618 26.4124 17.5454 26.2502 17.4907ZM14.3404 14.9878L14.3404 14.9878C14.5045 15.0411 14.6831 15.027 14.8367 14.9486C14.9904 14.8702 15.1067 14.734 15.16 14.5699C15.2132 14.4058 15.1991 14.2273 15.1208 14.0736C15.0424 13.9199 14.9062 13.8037 14.7421 13.7504C14.7421 13.7504 14.7421 13.7504 14.7421 13.7504L12.6499 13.0706L12.6499 13.0706C12.4858 13.0173 12.3072 13.0314 12.1536 13.1098C11.9999 13.1882 11.8836 13.3244 11.8303 13.4885C11.7771 13.6526 11.7912 13.8311 11.8696 13.9848C11.9479 14.1385 12.0841 14.2548 12.2482 14.308C12.2482 14.308 12.2482 14.308 12.2482 14.308L14.3404 14.9878ZM19.2487 8.09922C19.0763 8.09922 18.911 8.1677 18.7891 8.2896C18.6672 8.4115 18.5987 8.57683 18.5987 8.74922V10.9492C18.5987 11.1216 18.6672 11.2869 18.7891 11.4088C18.911 11.5307 19.0763 11.5992 19.2487 11.5992C19.4211 11.5992 19.5864 11.5307 19.7083 11.4088C19.8302 11.2869 19.8987 11.1216 19.8987 10.9492V8.74922C19.8987 8.57683 19.8302 8.4115 19.7083 8.2896C19.5864 8.1677 19.4211 8.09922 19.2487 8.09922Z" fill="#3D1C00" stroke="#3D1C00" stroke-width="0.2"/>
</g>
<defs>
<clipPath id="clip0_435_10671">
<rect width="24" height="29" fill="white" transform="translate(10.9995 8)"/>
</clipPath>
</defs>
</svg>
