<svg width="24" height="24" viewBox="0 0 24 24" fill="none" xmlns="http://www.w3.org/2000/svg">
<g clip-path="url(#clip0_41_372)">
<path d="M3.00767 9.42201C0.760505 7.17178 0.760505 3.62334 3.00767 1.37311L12.6013 10.9799L15.7992 14.1821L20.7257 19.1153C21.59 19.9808 21.59 21.279 20.7257 22.1445C19.8614 23.0099 18.3057 23.0099 17.5278 21.9714L13.9842 17.5575C13.1199 16.4323 11.5642 16.0861 10.1813 16.6054L3.00767 9.42201Z" stroke="#B67600" stroke-width="2" stroke-miterlimit="10" stroke-linecap="round" stroke-linejoin="round"/>
<path d="M15.7992 8.21033L20.4664 3.53677" stroke="#B67600" stroke-width="2" stroke-miterlimit="10" stroke-linecap="round" stroke-linejoin="round"/>
<path d="M13.8978 12.2781C14.2435 12.1915 14.5028 12.1915 14.8485 12.105C15.9721 12.0184 17.2685 11.4126 18.565 10.1144L22.8 5.87355" stroke="#B67600" stroke-width="2" stroke-miterlimit="10" stroke-linecap="round" stroke-linejoin="round"/>
<path d="M8.0206 14.4417L1.97054 19.3749C1.01982 20.0673 0.933389 21.4521 1.79768 22.231C2.66198 23.0965 3.95842 22.9234 4.64985 22.0579L9.57633 15.913" stroke="#B67600" stroke-width="2" stroke-miterlimit="10" stroke-linecap="round" stroke-linejoin="round"/>
<path d="M18.1328 1.2L13.8114 5.44081C12.5149 6.73902 11.8235 8.03723 11.8235 9.16235C11.8235 9.50854 11.7371 9.76818 11.6506 10.1144" stroke="#B67600" stroke-width="2" stroke-miterlimit="10" stroke-linecap="round" stroke-linejoin="round"/>
</g>
<defs>
<clipPath id="clip0_41_372">
<rect width="24" height="24" fill="white"/>
</clipPath>
</defs>
</svg>
