<svg width="20" height="19" viewBox="0 0 20 19" fill="none" xmlns="http://www.w3.org/2000/svg">
<path d="M4.99984 15.74H7.17508C7.45869 15.74 7.74057 15.7738 8.01551 15.8413L10.3139 16.3998C10.8126 16.5213 11.3322 16.5331 11.8361 16.4352L14.3773 15.9408C15.0486 15.81 15.6662 15.4886 16.1501 15.0178L17.9481 13.2688C18.4615 12.7702 18.4615 11.9611 17.9481 11.4616C17.4858 11.0119 16.7538 10.9613 16.2308 11.3427L14.1353 12.8714C13.8352 13.0908 13.4701 13.2089 13.0945 13.2089H11.0711L12.3591 13.2089C13.085 13.2089 13.6731 12.6368 13.6731 11.9307V11.675C13.6731 11.0886 13.2628 10.5774 12.6782 10.4356L10.6903 9.95218C10.3668 9.87371 10.0355 9.83406 9.70245 9.83406C8.89845 9.83406 7.44308 10.4997 7.44308 10.4997L4.99984 11.5215M1.6665 11.1674L1.6665 16.0007C1.6665 16.4674 1.6665 16.7008 1.75733 16.8791C1.83723 17.0359 1.96471 17.1633 2.12151 17.2432C2.29977 17.3341 2.53313 17.3341 2.99984 17.3341H3.6665C4.13321 17.3341 4.36657 17.3341 4.54483 17.2432C4.70163 17.1633 4.82911 17.0359 4.90901 16.8791C4.99984 16.7008 4.99984 16.4674 4.99984 16.0007V11.1674C4.99984 10.7007 4.99984 10.4673 4.90901 10.2891C4.82911 10.1323 4.70163 10.0048 4.54483 9.92489C4.36657 9.83406 4.13321 9.83406 3.6665 9.83406H2.99984C2.53313 9.83406 2.29977 9.83406 2.12151 9.92489C1.96471 10.0048 1.83723 10.1323 1.75733 10.2891C1.6665 10.4673 1.6665 10.7007 1.6665 11.1674ZM14.326 1.99427C13.8286 0.953557 12.682 0.402214 11.5669 0.93437C10.4517 1.46653 9.97667 2.72854 10.4435 3.83642C10.7321 4.52111 11.5588 5.85073 12.1482 6.76659C12.366 7.10498 12.4749 7.27418 12.634 7.37317C12.7704 7.45807 12.9412 7.50383 13.1018 7.49852C13.2891 7.49233 13.468 7.40025 13.8258 7.21608C14.7942 6.71765 16.175 5.97952 16.7672 5.53083C17.7255 4.80483 17.9628 3.47037 17.2454 2.45593C16.528 1.44148 15.2771 1.34166 14.326 1.99427Z" stroke="#B67600" stroke-width="1.4" stroke-linecap="round" stroke-linejoin="round"/>
</svg>
