<svg width="32" height="32" viewBox="0 0 32 32" fill="none" xmlns="http://www.w3.org/2000/svg">
<mask id="mask0_204_1837" style="mask-type:alpha" maskUnits="userSpaceOnUse" x="0" y="0" width="32" height="32">
<rect width="32" height="32" rx="16" fill="#F1F1F1"/>
</mask>
<g mask="url(#mask0_204_1837)">
<path d="M12.5855 27.4785C19.6033 27.4785 26.0552 25.7338 31.7147 22.5716V8.94143C31.7147 4.03455 27.4135 1.14441e-05 22.2067 1.14441e-05H-23.975C-20.1266 15.702 -5.18541 27.4785 12.5855 27.4785Z" fill="#F6B333"/>
<path d="M14.5179 5.14258C21.5357 5.14258 27.9876 6.88725 33.6471 10.0495V23.6797C33.6471 28.5865 29.3459 32.6211 24.1391 32.6211H-22.0427C-18.1942 16.9191 -3.25303 5.14258 14.5179 5.14258Z" fill="#F6B333"/>
<path fill-rule="evenodd" clip-rule="evenodd" d="M32.0348 22.5724C26.3753 25.7346 19.9235 27.4793 12.9056 27.4793C2.59445 27.4793 -6.76406 23.5146 -13.5558 17.1187C-6.6745 9.78167 3.36446 5.14258 14.5181 5.14258C20.878 5.14258 26.7731 6.57544 32.0348 9.1977V22.5724Z" fill="#ED6700"/>
<path d="M-14.4164 28.2246C-21.4541 28.2246 -27.9242 26.4326 -33.5997 23.1846V9.18466C-33.5997 4.14468 -29.2863 0.000692368 -24.0648 0.000692368H22.2476C18.3882 16.1286 3.4048 28.2246 -14.4164 28.2246Z" fill="#C60000"/>
<path fill-rule="evenodd" clip-rule="evenodd" d="M-20.4552 27.7718C-18.4949 28.0715 -16.48 28.2256 -14.4163 28.2256C1.28756 28.2256 14.7879 18.8331 20.4149 5.56587C18.4996 5.28625 16.5323 5.14258 14.5184 5.14258C-1.3697 5.14258 -14.9959 14.5559 -20.4552 27.7718Z" fill="#BD0000"/>
<path d="M-14.4164 4.39648C-21.4541 4.39648 -27.9242 6.18848 -33.5997 9.43647V23.4364C-33.5997 28.4764 -29.2863 32.6204 -24.0648 32.6204H22.2476C18.3882 16.4924 3.4048 4.39648 -14.4164 4.39648Z" fill="#C60000"/>
<path fill-rule="evenodd" clip-rule="evenodd" d="M20.2832 26.7502C17.8059 27.2305 15.2356 27.4795 12.5846 27.4795C-3.17541 27.4795 -16.7098 18.2174 -22.2554 5.16924C-19.7346 4.6604 -17.1174 4.39648 -14.4166 4.39648C1.16631 4.39648 14.5795 13.6448 20.2832 26.7502Z" fill="#BD0000"/>
<path fill-rule="evenodd" clip-rule="evenodd" d="M-33.5997 23.2657C-27.9588 26.4619 -21.5385 28.2238 -14.5602 28.2238C-3.52961 28.2238 6.41377 23.5898 13.3051 16.2339C6.41961 8.96651 -3.46232 4.39648 -14.4164 4.39648C-21.4541 4.39648 -27.9242 6.18848 -33.5997 9.43647V23.2657Z" fill="#8D0000"/>
</g>
</svg>
