<svg width="44" height="49" viewBox="0 0 44 49" fill="none" xmlns="http://www.w3.org/2000/svg">
<path d="M16.9403 1.97482C19.5969 0.399603 22.9013 0.399604 25.5579 1.97482L38.2582 9.50554C40.8241 11.027 42.3974 13.789 42.3974 16.7721V32.2277C42.3974 35.2108 40.8241 37.9728 38.2582 39.4943L25.5579 47.025C22.9013 48.6002 19.5969 48.6002 16.9403 47.025L4.24 39.4943C1.67405 37.9728 0.100761 35.2108 0.100761 32.2277V16.7721C0.100761 13.789 1.67406 11.027 4.24001 9.50554L16.9403 1.97482Z" fill="#F1A100"/>
<g clip-path="url(#clip0_202_3266)">
<path d="M9.88834 25.632L9.92422 25.6113L9.93494 25.5713L12.3507 16.5556C12.4616 16.1416 12.232 15.7438 11.818 15.6329L11.8084 15.6303L11.7985 15.6297C11.294 15.5971 10.8941 15.8095 10.781 16.2316L8.36523 25.2473C8.30618 25.4677 8.39031 25.6134 8.45674 25.7284L8.4589 25.7322C8.56927 25.9233 8.72922 26.0523 8.91606 26.1024C9.1029 26.1525 9.30593 26.1207 9.49708 26.0104C9.53768 25.9869 9.57694 25.9512 9.61139 25.9165C9.64646 25.8811 9.68261 25.8403 9.71647 25.8021L9.71753 25.8009C9.7526 25.7614 9.7853 25.7246 9.81608 25.6935C9.84784 25.6615 9.87178 25.6416 9.88834 25.632ZM32.8544 31.8824L32.8903 31.8617L32.901 31.8217L35.3168 22.8059C35.4277 22.3919 35.198 21.9942 34.784 21.8832C34.4984 21.8067 34.2521 21.8172 34.0593 21.9063C33.8644 21.9964 33.7363 22.1615 33.681 22.3676L31.2653 31.3834C31.2062 31.604 31.2922 31.7529 31.4149 31.9651L31.425 31.9825C31.5353 32.1737 31.6953 32.3027 31.8821 32.3528C32.0689 32.4028 32.272 32.3711 32.4631 32.2607C32.5037 32.2373 32.543 32.2016 32.5774 32.1668C32.6125 32.1314 32.6487 32.0907 32.6826 32.0525L32.6836 32.0513C32.7186 32.0118 32.7514 31.9749 32.7821 31.9439C32.8139 31.9118 32.8378 31.892 32.8544 31.8824ZM20.2467 11.2238L20.2467 11.2237L20.2416 11.2226C18.4544 10.8431 16.6897 11.862 16.1247 13.5995L16.1246 13.5994L16.1232 13.6045L11.6782 30.1935C11.1818 32.0462 12.2648 33.9347 14.0614 34.3177L23.0747 36.7328C24.0064 36.9825 24.8514 36.8077 25.6702 36.335C26.4965 35.858 26.9964 35.0969 27.309 34.2966L27.3097 34.2969L27.3126 34.2856L31.6432 17.7631C31.6432 17.763 31.6432 17.7629 31.6433 17.7628C32.1395 15.9103 31.0564 14.0219 29.26 13.6389L20.2467 11.2238ZM30.1905 17.3645L30.1901 17.3643L30.1878 17.3731L25.7428 33.9621C25.4672 34.9907 24.4932 35.553 23.4646 35.2774L14.4489 32.8617C13.4203 32.5861 12.858 31.6121 13.1336 30.5835L17.5786 13.9945C17.7142 13.4882 18.0815 13.1283 18.5255 12.872C18.9537 12.6247 19.5136 12.5867 19.9807 12.6158L28.9824 15.0278C29.4394 15.1972 29.8265 15.5533 30.0567 15.9835C30.2874 16.4147 30.3568 16.9125 30.1905 17.3645ZM19.1647 27.9712C18.2024 28.5268 17.8478 29.8502 18.4034 30.8126C18.959 31.7749 20.2824 32.1295 21.2447 31.5739C22.2071 31.0183 22.5617 29.6949 22.0061 28.7326C21.4505 27.7702 20.1271 27.4156 19.1647 27.9712ZM20.7634 29.8256C20.7275 29.9597 20.6544 30.0072 20.4187 30.1432C20.267 30.2309 20.1182 30.2498 19.9895 30.2153C19.8608 30.1808 19.7414 30.09 19.6538 29.9383C19.5661 29.7865 19.5472 29.6377 19.5817 29.509C19.6162 29.3803 19.707 29.2609 19.8587 29.1733C19.8753 29.1637 19.9045 29.1529 19.9481 29.1414C19.9904 29.1303 20.0386 29.1204 20.0904 29.1098L20.0919 29.1095C20.142 29.0993 20.1954 29.0883 20.2435 29.0756C20.2721 29.0681 20.3018 29.0593 20.3298 29.0483C20.6986 29.2461 20.8407 29.5372 20.7634 29.8256Z" fill="#3D2000" stroke="#3D2000" stroke-width="0.2"/>
</g>
<defs>
<clipPath id="clip0_202_3266">
<rect width="31.68" height="31.68" fill="white" transform="translate(0.11084 18.2031) rotate(-30)"/>
</clipPath>
</defs>
</svg>
