<svg width="14" height="14" viewBox="0 0 14 14" fill="none" xmlns="http://www.w3.org/2000/svg">
<path d="M10.125 8.66732C11.8573 8.66732 12.5668 10.4572 12.8532 11.7473C13.0079 12.444 12.4444 13.0423 11.7307 13.0423H10.9583M9.29167 5.54232C10.5573 5.54232 11.375 4.5163 11.375 3.25065C11.375 1.985 10.5573 0.958984 9.29167 0.958984M8.01527 13.0423H1.81808C1.34766 13.0423 0.977508 12.6521 1.07125 12.1911C1.33004 10.9183 2.17527 8.66732 4.91667 8.66732C7.65808 8.66732 8.5033 10.9183 8.7621 12.1911C8.85584 12.6521 8.48569 13.0423 8.01527 13.0423ZM7.20834 3.25065C7.20834 4.5163 6.18233 5.54232 4.91667 5.54232C3.65102 5.54232 2.62501 4.5163 2.62501 3.25065C2.62501 1.985 3.65102 0.958984 4.91667 0.958984C6.18233 0.958984 7.20834 1.985 7.20834 3.25065Z" stroke="#B67600" stroke-width="1.4" stroke-linecap="round" stroke-linejoin="round"/>
</svg>
