<svg width="17" height="3" viewBox="0 0 17 3" fill="none" xmlns="http://www.w3.org/2000/svg">
<path d="M1.27 2.54C1.9714 2.54 2.54 1.9714 2.54 1.27C2.54 0.568598 1.9714 0 1.27 0C0.568598 0 0 0.568598 0 1.27C0 1.9714 0.568598 2.54 1.27 2.54Z" fill="#B67600"/>
<path d="M8.39 2.54C9.0914 2.54 9.66 1.9714 9.66 1.27C9.66 0.568598 9.0914 0 8.39 0C7.6886 0 7.12 0.568598 7.12 1.27C7.12 1.9714 7.6886 2.54 8.39 2.54Z" fill="#B67600"/>
<path d="M15.5 2.54C16.2014 2.54 16.77 1.9714 16.77 1.27C16.77 0.568598 16.2014 0 15.5 0C14.7986 0 14.23 0.568598 14.23 1.27C14.23 1.9714 14.7986 2.54 15.5 2.54Z" fill="#B67600"/>
</svg>
