<svg width="24" height="25" viewBox="0 0 24 25" fill="none" xmlns="http://www.w3.org/2000/svg">
<path d="M21.0405 9.05L18.5472 6L19.1204 4.316C19.3412 3.668 18.8486 3 18.1507 3H14.8553C14.1574 3 13.6648 3.669 13.8856 4.316L14.4588 6L11.9655 9.05C11.0561 10.16 10.77 11.62 11.1889 12.96H13.2632C13.3654 12.98 13.4676 12.99 13.5698 13.01L15.8179 13.77C16.2266 13.91 16.5025 14.29 16.5025 14.71V15C16.5025 15.55 16.0427 16 15.4806 16H17.6367C19.4147 16 21.0293 14.94 21.6832 13.31C21.8978 12.79 22 12.25 22 11.72C22 10.76 21.673 9.82 21.0395 9.05H21.0405Z" fill="#905E00"/>
<path d="M21.7976 16.0009C21.4422 15.3052 20.6916 14.9125 19.9261 14.9632C20.1232 14.6777 20.3014 14.3776 20.4328 14.0502C20.6737 13.4666 20.7951 12.8537 20.7951 12.2272C20.7951 11.1184 20.4039 10.0319 19.6962 9.16867L17.5211 6.50769L17.9511 5.24492C18.1273 4.72656 18.0377 4.15267 17.7112 3.70933C17.3847 3.26503 16.8571 3 16.2977 3H13.0873C12.5279 3 12.0003 3.26405 11.6738 3.70933C11.3473 4.15267 11.2577 4.72656 11.4339 5.24492L11.8639 6.50769L9.68987 9.16867C8.86165 10.1791 8.49234 11.4506 8.61777 12.7046H7.27888C6.9902 12.1522 6.40985 11.7692 5.73295 11.7692H3.74204C2.78143 11.7692 2 12.5341 2 13.4744V20.2949C2 21.2351 2.78143 22 3.74204 22H5.73295C6.42479 22 7.01907 21.5995 7.29979 21.0256H15.2176C15.6407 21.0256 16.0638 20.9272 16.441 20.7431L20.9275 18.5478C21.8832 18.0811 22.2744 16.9382 21.7976 16.0009ZM5.98281 20.2949C5.98281 20.4293 5.87131 20.5385 5.73394 20.5385H3.74304C3.60566 20.5385 3.49417 20.4293 3.49417 20.2949V13.4744C3.49417 13.3399 3.60566 13.2308 3.74304 13.2308H5.73394C5.87131 13.2308 5.98281 13.3399 5.98281 13.4744V20.2949ZM12.8863 4.56287C12.9141 4.52487 12.9778 4.46154 13.0883 4.46154H16.2987C16.4092 4.46154 16.4729 4.52487 16.5008 4.56287C16.5286 4.5999 16.5694 4.67882 16.5346 4.7821L16.1464 5.92308H13.2397L12.8514 4.7821C12.8166 4.67979 12.8574 4.5999 12.8853 4.56287H12.8863ZM10.8565 10.0816L13.0615 7.38364H16.3256L18.5315 10.0826C19.0362 10.6965 19.302 11.4379 19.302 12.2262C19.302 12.6647 19.2163 13.0944 19.0451 13.5075C18.5265 14.7985 17.2225 15.6657 15.798 15.6657H15.4217C15.4336 15.5858 15.4396 15.5049 15.4396 15.4221V15.1395C15.4396 14.4195 14.9707 13.7735 14.2699 13.5328L12.0839 12.7933C12.0431 12.7796 12.0023 12.7699 11.9605 12.7631L11.6648 12.7144C11.623 12.7075 11.5802 12.7036 11.5374 12.7036H10.1378C10.0044 11.779 10.2423 10.8309 10.8565 10.0816ZM20.2616 17.2403L15.7751 19.4355C15.6029 19.5193 15.4107 19.5641 15.2186 19.5641H7.47598V14.1662H11.4757L13.7792 14.9145C13.8777 14.9476 13.9464 15.0411 13.9464 15.1405V15.4231C13.9464 15.5556 13.8329 15.6667 13.6976 15.6667H9.71575C9.30363 15.6667 8.96916 15.9941 8.96916 16.3974C8.96916 16.8008 9.30363 17.1282 9.71575 17.1282H17.3549C17.6505 17.1282 17.9422 17.0814 18.2249 16.9889L19.9191 16.4335C20.1262 16.3643 20.3611 16.4588 20.4607 16.6527C20.5712 16.87 20.4816 17.1321 20.2616 17.2403Z" fill="white"/>
</svg>
