<svg width="24" height="25" viewBox="0 0 24 25" fill="none" xmlns="http://www.w3.org/2000/svg">
<path d="M4.25008 11.4011C4.25008 10.9871 4.58608 10.6511 5.00008 10.6511H19.1891L16.4691 7.93114C16.1761 7.63814 16.1761 7.16314 16.4691 6.87014C16.7621 6.57714 17.2371 6.57714 17.5301 6.87014L21.5301 10.8701C21.7441 11.0841 21.8091 11.4071 21.6931 11.6871C21.5771 11.9671 21.3031 12.1501 21.0001 12.1501H5.00008C4.58608 12.1501 4.25008 11.8141 4.25008 11.4001V11.4011ZM21.0001 14.6511H5.00008C4.69708 14.6511 4.42308 14.8341 4.30708 15.1141C4.19108 15.3941 4.25508 15.7171 4.47008 15.9311L8.47008 19.9311C8.61608 20.0771 8.80808 20.1511 9.00008 20.1511C9.19208 20.1511 9.38408 20.0781 9.53008 19.9311C9.82308 19.6381 9.82308 19.1631 9.53008 18.8701L6.81008 16.1501H20.9991C21.4131 16.1501 21.7491 15.8141 21.7491 15.4001C21.7491 14.9861 21.4131 14.6501 20.9991 14.6501L21.0001 14.6511Z" fill="#905E00"/>
<path d="M3.25008 10.4011C3.25008 9.98714 3.58608 9.65114 4.00008 9.65114H18.1891L15.4691 6.93114C15.1761 6.63814 15.1761 6.16314 15.4691 5.87014C15.7621 5.57714 16.2371 5.57714 16.5301 5.87014L20.5301 9.87014C20.7441 10.0841 20.8091 10.4071 20.6931 10.6871C20.5771 10.9671 20.3031 11.1501 20.0001 11.1501H4.00008C3.58608 11.1501 3.25008 10.8141 3.25008 10.4001V10.4011ZM20.0001 13.6511H4.00008C3.69708 13.6511 3.42308 13.8341 3.30708 14.1141C3.19108 14.3941 3.25508 14.7171 3.47008 14.9311L7.47008 18.9311C7.61608 19.0771 7.80808 19.1511 8.00008 19.1511C8.19208 19.1511 8.38408 19.0781 8.53008 18.9311C8.82308 18.6381 8.82308 18.1631 8.53008 17.8701L5.81008 15.1501H19.9991C20.4131 15.1501 20.7491 14.8141 20.7491 14.4001C20.7491 13.9861 20.4131 13.6501 19.9991 13.6501L20.0001 13.6511Z" fill="white"/>
</svg>
