<svg width="24" height="25" viewBox="0 0 24 25" fill="none" xmlns="http://www.w3.org/2000/svg">
<path d="M19 10.4004H9V18.4004H19V10.4004Z" fill="#905E00"/>
<path d="M19 17.6503H17.75V11.1503H18.68C19.822 11.1503 20.75 10.2213 20.75 9.08031C20.75 8.41331 20.426 7.78431 19.883 7.39531L14.25 3.37131C12.929 2.42831 11.071 2.42831 9.75 3.37131L4.116 7.39531C3.574 7.78331 3.25 8.41331 3.25 9.08031C3.25 10.2223 4.179 11.1503 5.32 11.1503H6.25V17.6503H5C4.035 17.6503 3.25 18.4353 3.25 19.4003V20.4003C3.25 21.3653 4.035 22.1503 5 22.1503H19C19.965 22.1503 20.75 21.3653 20.75 20.4003V19.4003C20.75 18.4353 19.965 17.6503 19 17.6503ZM16.25 17.6503H12.75V11.1503H16.25V17.6503ZM4.75 9.08031C4.75 8.89631 4.839 8.72331 4.989 8.61631L10.622 4.59231C11.026 4.30331 11.503 4.15131 12 4.15131C12.497 4.15131 12.974 4.30431 13.378 4.59231L19.011 8.61531C19.161 8.72231 19.25 8.89631 19.25 9.08031C19.25 9.39431 18.994 9.65031 18.68 9.65031H5.32C5.006 9.65031 4.75 9.39431 4.75 9.08031ZM7.75 11.1503H11.25V17.6503H7.75V11.1503ZM19.25 20.4003C19.25 20.5383 19.138 20.6503 19 20.6503H5C4.862 20.6503 4.75 20.5383 4.75 20.4003V19.4003C4.75 19.2623 4.862 19.1503 5 19.1503H19C19.138 19.1503 19.25 19.2623 19.25 19.4003V20.4003Z" fill="white"/>
</svg>
