<svg width="28" height="12" viewBox="0 0 28 12" fill="none" xmlns="http://www.w3.org/2000/svg">
<path d="M6.79492 3.4929C6.74189 3.02225 6.52314 2.65767 6.13867 2.39915C5.7542 2.13731 5.2703 2.00639 4.68697 2.00639C4.26935 2.00639 3.90808 2.07268 3.60316 2.20526C3.29824 2.33452 3.06126 2.51349 2.89222 2.74219C2.7265 2.96757 2.64364 3.22443 2.64364 3.51278C2.64364 3.75473 2.69999 3.96354 2.81268 4.1392C2.92868 4.31487 3.07949 4.46236 3.26509 4.58168C3.45401 4.69768 3.65619 4.79545 3.87163 4.875C4.08706 4.95123 4.29421 5.0142 4.49308 5.06392L5.48739 5.32244C5.8122 5.40199 6.1453 5.50971 6.48668 5.6456C6.82807 5.78149 7.14459 5.96046 7.43626 6.18253C7.72792 6.40459 7.96325 6.67969 8.14222 7.00781C8.32451 7.33594 8.41566 7.72869 8.41566 8.18608C8.41566 8.76278 8.26651 9.27486 7.96822 9.7223C7.67324 10.1697 7.24402 10.5227 6.68058 10.7812C6.12044 11.0398 5.44265 11.169 4.64719 11.169C3.88488 11.169 3.22532 11.0481 2.6685 10.8061C2.11168 10.5642 1.67584 10.2211 1.36097 9.77699C1.04611 9.32955 0.8721 8.79924 0.838956 8.18608H2.38015C2.40998 8.55398 2.5293 8.86056 2.7381 9.10582C2.95022 9.34777 3.22035 9.52841 3.54847 9.64773C3.87991 9.76373 4.24284 9.82173 4.63725 9.82173C5.07144 9.82173 5.45756 9.75379 5.79563 9.6179C6.13701 9.47869 6.40548 9.28646 6.60103 9.04119C6.79658 8.79261 6.89435 8.5026 6.89435 8.17116C6.89435 7.86955 6.80818 7.62263 6.63583 7.4304C6.4668 7.23816 6.23645 7.07907 5.94478 6.95312C5.65643 6.82718 5.32996 6.71615 4.96538 6.62003L3.76225 6.2919C2.94691 6.06984 2.3006 5.74337 1.82333 5.3125C1.34937 4.88163 1.11239 4.31155 1.11239 3.60227C1.11239 3.01562 1.27148 2.50355 1.58967 2.06605C1.90785 1.62855 2.33872 1.28883 2.88228 1.04688C3.42584 0.80161 4.039 0.678977 4.72177 0.678977C5.41116 0.678977 6.01935 0.799952 6.54634 1.0419C7.07665 1.28385 7.49426 1.61695 7.79918 2.04119C8.10411 2.46212 8.2632 2.94602 8.27646 3.4929H6.79492ZM11.0295 11H9.39879L13.0629 0.818182H14.8377L18.5018 11H16.8711L13.9925 2.66761H13.913L11.0295 11ZM11.3029 7.01278H16.5927V8.3054H11.3029V7.01278ZM19.9721 11V0.818182H23.6014C24.3902 0.818182 25.0448 0.954072 25.5652 1.22585C26.0888 1.49763 26.4799 1.87382 26.7385 2.3544C26.997 2.83168 27.1262 3.38352 27.1262 4.00994C27.1262 4.63305 26.9953 5.18158 26.7335 5.65554C26.475 6.12618 26.0839 6.49242 25.5602 6.75426C25.0398 7.0161 24.3852 7.14702 23.5964 7.14702H20.8471V5.82457H23.4572C23.9544 5.82457 24.3587 5.75331 24.6703 5.6108C24.9851 5.46828 25.2155 5.26113 25.3613 4.98935C25.5072 4.71757 25.5801 4.3911 25.5801 4.00994C25.5801 3.62547 25.5055 3.29238 25.3564 3.01065C25.2105 2.72893 24.9802 2.51349 24.6653 2.36435C24.3538 2.21188 23.9444 2.13565 23.4373 2.13565H21.5083V11H19.9721ZM24.9984 6.40625L27.514 11H25.764L23.2981 6.40625H24.9984Z" fill="#B67600"/>
</svg>
