<svg width="49" height="58" viewBox="0 0 49 58" fill="none" xmlns="http://www.w3.org/2000/svg">
<g clip-path="url(#clip0_202_3253)">
<path d="M15.3241 56.6328L15.3242 56.6329L15.3555 56.6478C16.5731 57.2263 17.7769 57.7984 18.9477 57.7984H39.8477C42.3847 57.7984 44.4477 55.7355 44.4477 53.1984C44.4477 52.1552 44.0973 51.191 43.5091 50.4183C43.9967 50.0908 44.4178 49.6726 44.7488 49.1856C45.1226 48.6358 45.3728 48.0115 45.4821 47.3556C45.5914 46.6998 45.5572 46.0281 45.3819 45.3868C45.2267 44.8187 44.964 44.2865 44.6089 43.8185C45.2031 43.4199 45.697 42.8876 46.0503 42.2629C46.4409 41.5722 46.6463 40.792 46.6463 39.9984C46.6463 39.2048 46.4409 38.4247 46.0503 37.7339C45.6971 37.1094 45.2032 36.5771 44.6091 36.1785C45.1973 35.4058 45.5477 34.4417 45.5477 33.3984C45.5477 30.8614 43.4847 28.7984 40.9477 28.7984H21.6423C21.9784 27.0044 22.4411 23.8897 22.4411 20.3414C22.4411 15.8295 21.0786 13.5188 19.3702 12.3512C17.6834 11.1984 15.7079 11.1984 14.5601 11.1984L14.5477 11.1984C14.2029 11.1984 13.8722 11.3354 13.6284 11.5792C13.3846 11.823 13.2477 12.1537 13.2477 12.4984V20.9916L8.81601 29.8461L8.81593 29.8463C8.66182 30.1548 8.6366 30.512 8.74582 30.8391C8.85503 31.1663 9.08973 31.4367 9.39829 31.5908C9.70685 31.7449 10.064 31.7701 10.3911 31.6609C10.7183 31.5517 10.9886 31.317 11.1427 31.0085C11.1428 31.0085 11.1428 31.0084 11.1428 31.0084L15.7077 21.8807L15.7077 21.8807C15.7981 21.7 15.8453 21.5007 15.8455 21.2986V21.2984V13.8382C16.8068 13.9233 17.7531 14.1905 18.4824 15.019C19.2703 15.9141 19.8389 17.5027 19.8389 20.3436C19.8389 25.276 18.8613 29.4291 18.7809 29.7707C18.7797 29.776 18.7786 29.7804 18.7778 29.7838L18.7778 29.7838C18.73 29.9754 18.7265 30.1754 18.7675 30.3686C18.8086 30.5617 18.8931 30.743 19.0146 30.8986C19.1361 31.0542 19.2915 31.1801 19.469 31.2667C19.6465 31.3533 19.8413 31.3984 20.0388 31.3984H20.0389H40.9431C41.4565 31.4225 41.941 31.6431 42.2963 32.0147C42.6526 32.3873 42.8514 32.8829 42.8514 33.3984C42.8514 33.914 42.6526 34.4096 42.2963 34.7822C41.941 35.1538 41.4564 35.3744 40.9429 35.3984C40.5998 35.3997 40.2711 35.5365 40.0284 35.7792C39.7846 36.023 39.6477 36.3537 39.6477 36.6984C39.6477 37.0432 39.7846 37.3739 40.0284 37.6177C40.2722 37.8615 40.6029 37.9984 40.9477 37.9984H42.0431C42.5565 38.0225 43.041 38.2431 43.3963 38.6147C43.7526 38.9873 43.9514 39.4829 43.9514 39.9984C43.9514 40.514 43.7526 41.0096 43.3963 41.3822C43.041 41.7537 42.5565 41.9744 42.0431 41.9984H40.9477C40.6029 41.9984 40.2722 42.1354 40.0284 42.3792C39.7846 42.623 39.6477 42.9537 39.6477 43.2984C39.6477 43.6432 39.7846 43.9739 40.0284 44.2177C40.2711 44.4604 40.5999 44.5972 40.943 44.5984C41.4564 44.6225 41.941 44.8431 42.2963 45.2147C42.6526 45.5873 42.8514 46.0829 42.8514 46.5984C42.8514 47.114 42.6526 47.6096 42.2963 47.9822C41.941 48.3537 41.4565 48.5743 40.9431 48.5984H39.8477C39.5029 48.5984 39.1722 48.7354 38.9284 48.9792C38.6846 49.223 38.5477 49.5537 38.5477 49.8984C38.5477 50.2432 38.6846 50.5739 38.9284 50.8177C39.1711 51.0604 39.4999 51.1972 39.8429 51.1984C40.3564 51.2225 40.841 51.4431 41.1963 51.8147C41.5526 52.1873 41.7514 52.6829 41.7514 53.1984C41.7514 53.714 41.5526 54.2096 41.1963 54.5822C40.841 54.9537 40.3565 55.1743 39.8431 55.1984H18.9477C18.6723 55.1984 18.2954 55.0925 17.8492 54.9174C17.4157 54.7474 16.9408 54.5224 16.4645 54.2967L16.4396 54.285L16.4395 54.2849L16.4092 54.2705C15.1176 53.6572 13.7304 52.9984 12.3477 52.9984H7.94766C7.60288 52.9984 7.27221 53.1354 7.02842 53.3792C6.78462 53.623 6.64766 53.9537 6.64766 54.2984C6.64766 54.6432 6.78462 54.9739 7.02842 55.2177C7.27221 55.4615 7.60287 55.5984 7.94766 55.5984H12.3477C12.7331 55.5984 13.1984 55.7216 13.7155 55.9177C14.2301 56.1128 14.7769 56.3725 15.3241 56.6328Z" fill="#3D1C00" stroke="#3D1C00" stroke-width="0.4"/>
<path d="M31.0445 44.5996H42.0445C44.5816 44.5996 46.6445 42.5367 46.6445 39.9996C46.6445 37.4626 44.5816 35.3996 42.0445 35.3996H31.0445C28.5075 35.3996 26.4445 37.4626 26.4445 39.9996C26.4445 42.5367 28.5075 44.5996 31.0445 44.5996ZM29.6959 38.6158C30.0512 38.2443 30.5357 38.0237 31.0491 37.9996H42.04C42.5533 38.0237 43.0379 38.2443 43.3932 38.6158C43.7495 38.9884 43.9483 39.4841 43.9483 39.9996C43.9483 40.5151 43.7495 41.0108 43.3932 41.3834C43.0379 41.7549 42.5533 41.9755 42.04 41.9996H31.0491C30.5357 41.9755 30.0512 41.7549 29.6959 41.3834C29.3396 41.0108 29.1407 40.5151 29.1407 39.9996C29.1407 39.4841 29.3396 38.9884 29.6959 38.6158ZM33.2445 57.7996H39.8445C42.3816 57.7996 44.4445 55.7367 44.4445 53.1996C44.4445 50.6626 42.3816 48.5996 39.8445 48.5996H33.2445C30.7075 48.5996 28.6445 50.6626 28.6445 53.1996C28.6445 55.7367 30.7075 57.7996 33.2445 57.7996ZM31.8959 51.8158C32.2512 51.4443 32.7357 51.2237 33.2491 51.1996H39.8399C40.3533 51.2237 40.8379 51.4443 41.1932 51.8158C41.5495 52.1884 41.7483 52.6841 41.7483 53.1996C41.7483 53.7151 41.5495 54.2108 41.1932 54.5834C40.8379 54.9549 40.3534 55.1755 39.84 55.1996H33.2491C32.7357 55.1755 32.2512 54.9549 31.8959 54.5834C31.5396 54.2108 31.3407 53.7151 31.3407 53.1996C31.3407 52.6841 31.5396 52.1884 31.8959 51.8158Z" fill="#3D1C00" stroke="#3D1C00" stroke-width="0.4"/>
<path d="M16.9825 46.9188C17.0837 46.9193 17.1844 46.907 17.2825 46.8824C20.8043 46.0576 23.3297 43.142 24.0585 39.1182L24.0585 39.1182C24.8024 35.0069 23.4923 30.988 20.7322 29.1453C20.5909 29.0456 20.4311 28.9751 20.2622 28.9379C20.0923 28.9005 19.9167 28.8976 19.7457 28.9293C19.5747 28.961 19.4118 29.0267 19.2666 29.1225C19.1214 29.2183 18.997 29.3422 18.9006 29.487C18.8042 29.6318 18.7378 29.7944 18.7054 29.9653L18.9019 30.0026L18.7054 29.9653C18.673 30.1362 18.6752 30.3118 18.7119 30.4818C18.7486 30.6519 18.819 30.8128 18.9191 30.9551C19.0185 31.0965 19.145 31.2166 19.2914 31.3085C20.1875 31.908 20.88 32.9714 21.2787 34.2818C21.6769 35.591 21.7762 37.1302 21.5001 38.6554C20.9544 41.6643 19.146 43.7758 16.6891 44.3502C16.3762 44.4203 16.1001 44.6035 15.9141 44.8648C15.7278 45.1263 15.645 45.4476 15.6815 45.7666C15.718 46.0856 15.8712 46.3798 16.1117 46.5925C16.3518 46.805 16.662 46.9211 16.9825 46.9188ZM16.9825 46.9188C16.9821 46.9188 16.9816 46.9188 16.9811 46.9188L16.9823 46.7188L16.984 46.9188C16.9835 46.9188 16.983 46.9188 16.9825 46.9188ZM32.1447 51.2H40.9447C43.4817 51.2 45.5447 49.1371 45.5447 46.6C45.5447 44.0629 43.4817 42 40.9447 42H32.1447C29.6076 42 27.5447 44.0629 27.5447 46.6C27.5447 49.1371 29.6076 51.2 32.1447 51.2ZM30.796 45.2162C31.1513 44.8447 31.6359 44.6241 32.1493 44.6H40.9401C41.4535 44.6241 41.938 44.8447 42.2933 45.2162C42.6496 45.5888 42.8485 46.0845 42.8485 46.6C42.8485 47.1155 42.6496 47.6112 42.2933 47.9838C41.938 48.3553 41.4535 48.5759 40.9401 48.6H32.1492C31.6359 48.5759 31.1513 48.3553 30.796 47.9838C30.4397 47.6112 30.2409 47.1155 30.2409 46.6C30.2409 46.0845 30.4397 45.5888 30.796 45.2162ZM32.1447 38H40.9447C43.4817 38 45.5447 35.9371 45.5447 33.4C45.5447 30.8629 43.4817 28.8 40.9447 28.8H32.1447C29.6076 28.8 27.5447 30.8629 27.5447 33.4C27.5447 35.9371 29.6076 38 32.1447 38ZM30.796 32.0162C31.1513 31.6447 31.6359 31.4241 32.1493 31.4H40.9401C41.4535 31.4241 41.938 31.6447 42.2933 32.0162C42.6496 32.3888 42.8485 32.8845 42.8485 33.4C42.8485 33.9155 42.6496 34.4112 42.2933 34.7838C41.938 35.1553 41.4535 35.3759 40.9401 35.4H32.1493C31.6359 35.3759 31.1513 35.1553 30.796 34.7838C30.4397 34.4112 30.2409 33.9155 30.2409 33.4C30.2409 32.8845 30.4397 32.3888 30.796 32.0162Z" fill="#3D1C00" stroke="#3D1C00" stroke-width="0.4"/>
<path d="M22.5667 9.08824C22.7721 9.08882 22.9747 9.04057 23.1578 8.94744C23.341 8.85425 23.4994 8.71881 23.6199 8.55231L26.2068 4.99312C26.2068 4.9931 26.2068 4.99309 26.2068 4.99307C26.2068 4.99305 26.2069 4.99304 26.2069 4.99302C26.3072 4.85509 26.3794 4.69875 26.4194 4.53291L26.225 4.48607L26.4194 4.53291C26.4593 4.36704 26.4662 4.19492 26.4397 4.02638C26.4131 3.85784 26.3536 3.69619 26.2646 3.55064C26.1756 3.4051 26.0587 3.27852 25.9208 3.17812C25.7828 3.07773 25.6264 3.00549 25.4606 2.96554C25.2947 2.92558 25.1226 2.91868 24.954 2.94524C24.7855 2.9718 24.6238 3.0313 24.4783 3.12033C24.3328 3.20937 24.2062 3.3262 24.1058 3.46416L24.1057 3.46425L21.519 7.0232C21.5189 7.02332 21.5188 7.02345 21.5187 7.02357C21.377 7.217 21.2917 7.4459 21.2722 7.68488C21.2527 7.92401 21.2998 8.16387 21.4084 8.37782C21.517 8.59177 21.6828 8.77142 21.8873 8.89683C22.0918 9.02217 22.3269 9.08842 22.5667 9.08824ZM22.5667 9.08824C22.5668 9.08824 22.567 9.08824 22.5671 9.08824L22.5669 8.88824L22.5663 9.08824C22.5664 9.08824 22.5665 9.08824 22.5667 9.08824ZM26.5645 13.9778L26.5644 13.9779C26.4018 14.0306 26.2305 14.0507 26.0602 14.0371C25.8899 14.0236 25.724 13.9766 25.5718 13.8988C25.4197 13.8211 25.2844 13.7141 25.1736 13.584C25.0629 13.4539 24.9789 13.3033 24.9264 13.1407C24.8737 12.9786 24.8535 12.8077 24.867 12.6377C24.8804 12.4677 24.9272 12.302 25.0048 12.15C25.0823 11.9981 25.189 11.8629 25.3189 11.7523C25.4486 11.6417 25.5989 11.5577 25.7611 11.5052L26.5645 13.9778ZM26.5645 13.9778L30.7489 12.6182C31.0768 12.5117 31.3489 12.2793 31.5054 11.9721C31.662 11.6649 31.69 11.3081 31.5835 10.9802C31.477 10.6523 31.2445 10.3802 30.9373 10.2237C30.6302 10.0672 30.2734 10.0391 29.9455 10.1456L25.7613 11.5051L26.5645 13.9778ZM3.55029 21.4556L3.54884 21.4561C3.42036 21.4968 3.28646 21.5177 3.15171 21.5182C3.15121 21.5182 3.15072 21.5182 3.15023 21.5182L3.14969 21.3182C2.88512 21.3229 2.62779 21.2318 2.42505 21.0617C2.22231 20.8917 2.08781 20.6541 2.0463 20.3928C2.0048 20.1315 2.05909 19.8639 2.19917 19.6394L3.55029 21.4556ZM3.55029 21.4556L7.73469 20.0961L7.73534 20.0958C8.0628 19.9882 8.33434 19.7553 8.49062 19.4481C8.64688 19.141 8.67523 18.7845 8.56951 18.4565M3.55029 21.4556L2.74849 18.9803C2.74902 18.9801 2.74954 18.98 2.75006 18.9798L6.93053 17.6215C6.93063 17.6214 6.93073 17.6214 6.93083 17.6214C7.09316 17.568 7.26447 17.5472 7.43487 17.5603C7.60537 17.5733 7.7716 17.62 7.92397 17.6977C8.07633 17.7753 8.21182 17.8823 8.32262 18.0126C8.4334 18.1428 8.51731 18.2937 8.56951 18.4565M8.56951 18.4565C8.56948 18.4564 8.56946 18.4563 8.56943 18.4562L8.37909 18.5176L8.56954 18.4566C8.56953 18.4565 8.56952 18.4565 8.56951 18.4565ZM30.751 18.9815L30.7489 18.9808L26.5666 17.6219C26.5662 17.6218 26.5659 17.6217 26.5656 17.6216C26.403 17.5669 26.2311 17.545 26.06 17.5571C25.8885 17.5692 25.7211 17.6151 25.5675 17.6923C25.4139 17.7696 25.2772 17.8765 25.1652 18.0069C25.0532 18.1373 24.9682 18.2886 24.9151 18.4521C24.8619 18.6156 24.8418 18.788 24.8557 18.9594C24.8697 19.1307 24.9175 19.2976 24.9963 19.4503C25.0752 19.6031 25.1836 19.7386 25.3152 19.8492C25.4466 19.9596 25.5985 20.0428 25.7621 20.0942C25.7625 20.0943 25.7628 20.0944 25.7632 20.0945L29.9455 21.4535L29.9476 21.4541C30.2743 21.5564 30.6281 21.5256 30.9323 21.3685C31.2365 21.2115 31.4664 20.9408 31.5722 20.6152C31.678 20.2896 31.6511 19.9354 31.4973 19.6296C31.3436 19.3237 31.0754 19.0908 30.751 18.9815ZM6.93129 13.9756L6.93134 13.9757C7.25953 14.0822 7.61659 14.054 7.92398 13.8972C8.23137 13.7405 8.4639 13.4681 8.57042 13.1399C8.67694 12.8117 8.64873 12.4546 8.49199 12.1472C8.33526 11.8399 8.06285 11.6074 7.73469 11.5008C7.73467 11.5008 7.73465 11.5008 7.73463 11.5008L3.55029 10.1412L3.55023 10.1412C3.22205 10.0347 2.86499 10.0629 2.5576 10.2196L2.64845 10.3978L2.5576 10.2196C2.25022 10.3764 2.01768 10.6488 1.91116 10.977C1.80464 11.3052 1.83285 11.6622 1.98959 11.9696C2.14632 12.277 2.41872 12.5095 2.74689 12.616C2.74691 12.6161 2.74693 12.6161 2.74694 12.6161L6.93129 13.9756ZM11.9795 7.02387L11.9795 7.02385L9.39434 3.46709C9.29713 3.32338 9.17213 3.20058 9.0267 3.10592C8.8802 3.01056 8.71597 2.94573 8.54384 2.9153C8.37171 2.88487 8.19521 2.88947 8.02489 2.92882C7.85458 2.96817 7.69395 3.04147 7.55261 3.14432C7.41127 3.24718 7.29213 3.37748 7.2023 3.52744C7.11248 3.67739 7.05382 3.84393 7.02984 4.01708C7.00585 4.19022 7.01703 4.36643 7.06271 4.53516C7.10804 4.70261 7.18643 4.85929 7.29324 4.99596L9.87799 8.55218C9.87807 8.5523 9.87816 8.55242 9.87825 8.55254C9.97828 8.69087 10.1047 8.80807 10.2502 8.8974C10.3958 8.98681 10.5576 9.04653 10.7264 9.07313C10.8952 9.09973 11.0676 9.09268 11.2336 9.05239C11.3996 9.01212 11.5559 8.93944 11.6937 8.83852C11.972 8.63564 12.1584 8.33063 12.212 7.99044C12.2656 7.65017 12.182 7.30253 11.9795 7.02387ZM16.7479 0.198437C16.4031 0.198437 16.0724 0.335401 15.8287 0.579199C15.5849 0.822996 15.4479 1.15366 15.4479 1.49844V5.89844C15.4479 6.24322 15.5849 6.57388 15.8287 6.81768C16.0724 7.06147 16.4031 7.19844 16.7479 7.19844C17.0927 7.19844 17.4233 7.06147 17.6671 6.81768C17.9109 6.57388 18.0479 6.24322 18.0479 5.89844V1.49844C18.0479 1.15366 17.9109 0.822996 17.6671 0.579199C17.4233 0.335402 17.0927 0.198437 16.7479 0.198437Z" fill="#3D1C00" stroke="#3D1C00" stroke-width="0.4"/>
</g>
<defs>
<clipPath id="clip0_202_3253">
<rect width="48" height="58" fill="white" transform="translate(0.25)"/>
</clipPath>
</defs>
</svg>
