<svg width="20" height="18" viewBox="0 0 20 18" fill="none" xmlns="http://www.w3.org/2000/svg">
<path d="M15.8332 7.33333V4.16667C15.8332 3.23325 15.8332 2.76654 15.6515 2.41002C15.4917 2.09641 15.2368 1.84144 14.9232 1.68166C14.5666 1.5 14.0999 1.5 13.1665 1.5H6.83317C5.89975 1.5 5.43304 1.5 5.07652 1.68166C4.76292 1.84144 4.50795 2.09641 4.34816 2.41002C4.1665 2.76654 4.1665 3.23325 4.1665 4.16667V7.33333M4.1665 6.5H1.6665V5.66667M15.8332 6.5H18.3332V5.66667M4.99984 10.25H5.00817M14.9998 10.25H15.0082M5.6665 7.33333H14.3332C15.7333 7.33333 16.4334 7.33333 16.9681 7.60582C17.4386 7.8455 17.821 8.22795 18.0607 8.69836C18.3332 9.23314 18.3332 9.9332 18.3332 11.3333V14C18.3332 14.7766 18.3332 15.1649 18.2063 15.4711C18.0371 15.8795 17.7127 16.204 17.3043 16.3731C16.998 16.5 16.6097 16.5 15.8332 16.5H15.3332C15.0235 16.5 14.8687 16.5 14.7391 16.4795C14.026 16.3665 13.4666 15.8072 13.3537 15.0941C13.3332 14.9645 13.3332 14.8097 13.3332 14.5C13.3332 14.4226 13.3332 14.3839 13.328 14.3515C13.2998 14.1732 13.16 14.0334 12.9817 14.0051C12.9493 14 12.9106 14 12.8332 14H7.1665C7.08909 14 7.05038 14 7.01799 14.0051C6.8397 14.0334 6.69987 14.1732 6.67163 14.3515C6.6665 14.3839 6.6665 14.4226 6.6665 14.5C6.6665 14.8097 6.6665 14.9645 6.64598 15.0941C6.53303 15.8072 5.97372 16.3665 5.26056 16.4795C5.13101 16.5 4.97617 16.5 4.6665 16.5H4.1665C3.38993 16.5 3.00165 16.5 2.69536 16.3731C2.28698 16.204 1.96253 15.8795 1.79337 15.4711C1.6665 15.1649 1.6665 14.7766 1.6665 14V11.3333C1.6665 9.9332 1.6665 9.23314 1.93899 8.69836C2.17867 8.22795 2.56112 7.8455 3.03153 7.60582C3.56631 7.33333 4.26637 7.33333 5.6665 7.33333ZM5.4165 10.25C5.4165 10.4801 5.22996 10.6667 4.99984 10.6667C4.76972 10.6667 4.58317 10.4801 4.58317 10.25C4.58317 10.0199 4.76972 9.83333 4.99984 9.83333C5.22996 9.83333 5.4165 10.0199 5.4165 10.25ZM15.4165 10.25C15.4165 10.4801 15.23 10.6667 14.9998 10.6667C14.7697 10.6667 14.5832 10.4801 14.5832 10.25C14.5832 10.0199 14.7697 9.83333 14.9998 9.83333C15.23 9.83333 15.4165 10.0199 15.4165 10.25Z" stroke="#B67600" stroke-width="1.4" stroke-linecap="round" stroke-linejoin="round"/>
</svg>
